<?xml version="1.0" standalone="no"?>
<!DOCTYPE svg PUBLIC "-//W3C//DTD SVG 20010904//EN"
 "http://www.w3.org/TR/2001/REC-SVG-20010904/DTD/svg10.dtd">
<svg version="1.0" xmlns="http://www.w3.org/2000/svg"
 width="173.000000pt" height="173.000000pt" viewBox="0 0 173.000000 173.000000"
 preserveAspectRatio="xMidYMid meet">
<metadata>
Created by potrace 1.14, written by Peter Selinger 2001-2017
</metadata>
<g transform="translate(0.000000,173.000000) scale(0.100000,-0.100000)"
fill="#000000" stroke="none">
<path d="M451 1584 c-46 -19 -81 -70 -82 -117 0 -23 -1 -222 -2 -442 l-2 -400
-25 3 c-38 6 -70 41 -70 77 0 17 10 52 23 77 23 45 32 149 14 156 -13 5 -67
-68 -98 -133 -106 -220 103 -321 474 -228 52 13 70 14 79 5 31 -31 132 0 158
48 17 31 6 36 -40 15 -33 -15 -44 -16 -70 -5 -24 10 -29 17 -26 36 7 35 13 41
52 54 43 15 33 32 -20 32 -50 0 -99 -31 -110 -69 -8 -27 -17 -33 -66 -47 -70
-20 -180 -32 -180 -20 -1 44 -1 682 -1 761 1 78 5 105 17 117 13 14 62 16 378
16 295 0 366 -3 381 -14 18 -13 20 -30 20 -268 1 -139 -1 -260 -3 -269 -2 -9
-23 -31 -47 -49 -26 -20 -41 -38 -38 -46 3 -8 1 -14 -5 -14 -5 0 -27 -12 -48
-27 -21 -14 -46 -27 -54 -28 -24 -2 -70 -36 -70 -51 0 -8 6 -17 14 -20 17 -6
86 21 86 34 0 17 96 73 114 66 39 -15 245 185 296 290 28 56 32 73 28 121 -4
43 -11 62 -33 84 -36 38 -84 59 -94 42 -11 -17 -2 -64 15 -77 25 -20 32 -57
19 -100 -11 -38 -65 -126 -83 -138 -4 -2 -7 93 -8 212 0 120 -3 229 -7 243 -4
14 -25 39 -48 55 l-41 28 -385 1 c-264 0 -394 -3 -412 -11z"/>
<path d="M714 1409 c-12 -21 18 -27 130 -27 131 0 156 3 156 23 0 13 -23 15
-139 15 -92 0 -142 -4 -147 -11z"/>
<path d="M1373 832 c-294 -231 -707 -391 -1017 -394 -36 -1 -66 -5 -66 -9 0
-5 18 -9 40 -9 l40 0 0 -69 c0 -53 4 -74 20 -94 45 -57 49 -57 472 -57 428 1
426 1 464 65 16 27 18 57 19 274 l0 243 45 44 c55 54 48 57 -17 6z m-446 -461
c16 -21 16 -63 1 -84 -17 -22 -90 -37 -114 -24 -65 36 -57 108 16 135 29 11
79 -3 97 -27z"/>
</g>
</svg>
